<svg width="24" height="24" viewBox="0 0 24 24" fill="none" xmlns="http://www.w3.org/2000/svg">
<rect x="0.4" y="0.4" width="23.2" height="23.2" rx="11.6" fill="white" fill-opacity="0.8"/>
<rect x="0.4" y="0.4" width="23.2" height="23.2" rx="11.6" stroke="#1D92ED" stroke-width="0.8"/>
<path d="M5.33203 10.971C5.33203 9.51424 6.51294 8.33333 7.96967 8.33333C8.39172 8.33333 8.77316 8.08181 8.93941 7.69389L9.14587 7.21216C9.46102 6.47679 10.1841 6 10.9842 6H11.9987H13.0132C13.8133 6 14.5364 6.47679 14.8515 7.21216L15.058 7.69388C15.2242 8.08181 15.6057 8.33333 16.0277 8.33333C17.4845 8.33333 18.6654 9.51424 18.6654 10.971V14.3333C18.6654 16.1743 17.173 17.6667 15.332 17.6667H8.66536C6.82441 17.6667 5.33203 16.1743 5.33203 14.3333V10.971Z" stroke="#1D92ED"/>
<circle cx="2" cy="2" r="2" transform="matrix(-1 0 0 1 13.999 10.332)" stroke="#1D92ED"/>
</svg>
