<svg width="16" height="16" viewBox="0 0 16 16" fill="none" xmlns="http://www.w3.org/2000/svg">
<path d="M4.10738 11.3393L12 11.3333M8.00005 2C9.27872 2 10.3467 2.9 10.6067 4.10067C11.2895 3.9159 12.0177 4.00992 12.6311 4.36205C13.2445 4.71418 13.6929 5.29558 13.8777 5.97833C14.0625 6.66109 13.9685 7.38928 13.6163 8.00271C13.2642 8.61614 12.6828 9.06457 12 9.24933V14H4.00005V9.24933C3.66198 9.15776 3.34526 9.00049 3.06798 8.78652C2.79069 8.57254 2.55826 8.30604 2.38396 8.00224C2.20967 7.69844 2.09692 7.36328 2.05215 7.0159C2.00738 6.66853 2.03147 6.31573 2.12305 5.97767C2.21462 5.6396 2.37189 5.32288 2.58587 5.04559C2.79984 4.76831 3.06634 4.53588 3.37014 4.36158C3.67394 4.18729 4.0091 4.07454 4.35648 4.02977C4.70386 3.985 5.05665 4.00909 5.39472 4.10067C5.52394 3.50571 5.85286 2.97289 6.32681 2.59074C6.80077 2.20859 7.39122 2.00013 8.00005 2Z" stroke="#FF8F0F" stroke-width="1.33333" stroke-linecap="round" stroke-linejoin="round"/>
</svg>
