<svg width="24" height="24" viewBox="0 0 24 24" fill="none" xmlns="http://www.w3.org/2000/svg">
<path d="M8.80313 2.13281C8.80313 2.13281 8.2125 2.44266 7.61719 2.89828C7.32188 3.12609 7.01719 3.39047 6.77344 3.69234C6.52969 3.99422 6.32813 4.34344 6.32813 4.75781C6.32813 5.16094 6.54375 5.49375 6.79688 5.72344C7.04532 5.94844 7.33594 6.10781 7.60782 6.25781C7.87969 6.40781 8.13751 6.55313 8.31094 6.69375C8.48438 6.83438 8.56407 6.94687 8.58282 7.07344C8.63438 7.38281 8.33907 8.10937 7.96407 8.69062C7.58438 9.27187 7.18594 9.72656 7.18594 9.72656L7.81407 10.2891C7.81407 10.2891 8.25469 9.79219 8.67188 9.15C9.08907 8.50781 9.54375 7.73438 9.41719 6.94219C9.35157 6.54375 9.10782 6.24844 8.84063 6.0375C8.57813 5.82188 8.28282 5.66719 8.01563 5.51719C7.74844 5.37187 7.50469 5.22656 7.35938 5.09531C7.21407 4.96406 7.17188 4.88438 7.17188 4.75781C7.17188 4.64109 7.25157 4.44281 7.42969 4.22297C7.60782 4.00266 7.86563 3.77109 8.13282 3.56859C8.6625 3.16406 9.19688 2.87906 9.19688 2.87906L8.80313 2.13281ZM13.0219 3.65297C13.0219 3.65297 12.4406 3.87141 11.8453 4.19484C11.55 4.35656 11.2453 4.54266 10.9969 4.7625C10.7438 4.98281 10.5 5.25 10.5 5.64844C10.5 6.03281 10.7672 6.30469 11.0203 6.46875C11.2734 6.62813 11.5547 6.74063 11.8313 6.84844C12.1031 6.95156 12.3656 7.05937 12.5391 7.15781C12.7125 7.26094 12.7594 7.34062 12.7594 7.34531C12.7688 7.37344 12.75 7.51875 12.6422 7.71094C12.5391 7.89844 12.3609 8.12344 12.1781 8.325C11.8078 8.73281 11.4094 9.05625 11.4094 9.05625L11.9344 9.7125C11.9344 9.7125 12.375 9.36094 12.8016 8.89688C13.0125 8.6625 13.2234 8.40469 13.3828 8.11875C13.5375 7.8375 13.6641 7.51875 13.5844 7.15781C13.5 6.79219 13.2234 6.58125 12.9609 6.42656C12.6984 6.27656 12.4078 6.16875 12.1359 6.06094C11.8688 5.95313 11.6203 5.85 11.4797 5.75625C11.3719 5.69063 11.3484 5.65781 11.3438 5.64844C11.3531 5.64844 11.3953 5.53594 11.55 5.39531C11.7234 5.24531 11.9813 5.08125 12.2484 4.93594C12.7781 4.64719 13.3219 4.44234 13.3219 4.44234L13.0219 3.65297ZM16.1859 4.25391C16.0125 4.28625 15.8203 4.45875 15.675 4.75313C15.5297 5.04844 15.4594 5.43281 15.4828 5.7C15.4875 5.75156 15.675 6.08437 15.9047 6.32344C16.1391 6.5625 16.3688 6.74063 16.3688 6.74063L16.5797 6.9L16.0828 9.30469L16.7531 9.51094L17.7891 7.53281C17.55 7.275 17.3109 6.975 17.2781 6.54844C17.2547 6.19219 17.3063 5.8125 17.4375 5.45156C17.1422 5.37188 17.0719 5.21719 16.9641 5.07656C16.8469 4.93594 16.7344 4.77656 16.6219 4.63734C16.5094 4.49625 16.3922 4.37391 16.3031 4.31109C16.2188 4.24875 16.1953 4.25437 16.1859 4.25437V4.25391ZM18.825 5.03438C18.6516 5.06719 18.4594 5.23594 18.3141 5.53125C18.1734 5.82656 18.0984 6.21094 18.1219 6.48281C18.1266 6.53438 18.3141 6.86719 18.5438 7.10625C18.7781 7.34531 19.0078 7.52344 19.0078 7.52344L19.2188 7.68281L18.7172 10.0922L19.3875 10.3031L20.5969 7.99219L20.7703 7.94531C20.7703 7.94531 21.2109 7.81406 21.6703 7.59844C21.9 7.49063 22.1297 7.35938 22.2938 7.22812C22.4625 7.09219 22.5516 6.96563 22.5656 6.90469V6.9C22.6359 6.65625 22.5844 6.26719 22.425 5.93437C22.2609 5.60625 22.0031 5.35781 21.7781 5.2875C21.7688 5.28281 21.7453 5.27813 21.6469 5.33438C21.5484 5.39063 21.4125 5.50312 21.2719 5.63437C21.1313 5.77031 20.9859 5.91562 20.8125 6.04219C20.6438 6.16875 20.4047 6.31406 20.0953 6.23438C19.7859 6.15938 19.7156 5.99531 19.6031 5.85469C19.4859 5.71406 19.3734 5.55469 19.2609 5.41406C19.1484 5.27344 19.0313 5.15156 18.9422 5.09062C18.8578 5.025 18.8344 5.03438 18.825 5.03438ZM4.32938 5.62031C4.32938 5.62031 3.74344 5.87344 3.14766 6.25312C2.84954 6.44531 2.54625 6.66094 2.29782 6.91875C2.04938 7.17656 1.82719 7.48125 1.82719 7.87969C1.82719 8.26406 2.07188 8.56875 2.3236 8.75625C2.57579 8.94375 2.86172 9.075 3.13454 9.20156C3.40735 9.32344 3.66657 9.44531 3.84047 9.5625C4.01391 9.67969 4.07297 9.76875 4.08469 9.82969C4.1011 9.91406 4.07063 10.1109 3.9586 10.3453C3.84704 10.575 3.66985 10.8422 3.48282 11.0812C3.10922 11.5594 2.70938 11.9344 2.70938 11.9344L3.28782 12.5531C3.28782 12.5531 3.72704 12.1406 4.14797 11.5969C4.35844 11.3297 4.56704 11.025 4.72032 10.7062C4.875 10.3875 4.9875 10.0406 4.9125 9.67031C4.84219 9.29531 4.57594 9.04219 4.31204 8.86406C4.04766 8.68594 3.75516 8.55469 3.48657 8.43281C3.21797 8.31094 2.97329 8.18906 2.82938 8.08125C2.68594 7.97344 2.67047 7.93125 2.67047 7.87969C2.67047 7.8375 2.72954 7.6875 2.90297 7.50469C3.07641 7.32656 3.33563 7.13438 3.6 6.96563C4.12922 6.62813 4.66829 6.38906 4.66829 6.38906L4.32938 5.62031ZM15.5109 10.0078C15.4031 10.0828 15.15 10.2656 14.7984 10.5328C15.3609 10.65 15.9375 10.8047 16.5188 10.9922C16.5938 10.9312 16.6594 10.8797 16.7297 10.8234C16.7063 10.6266 16.6828 10.4719 16.6688 10.3687L15.5109 10.0078ZM18.1547 10.7953C17.9438 10.9453 17.2359 11.4609 16.3172 12.2625C15.2484 13.1906 14.0578 14.4 13.5844 15.3609C13.2281 16.0828 12.8203 16.9641 12.6188 17.7984C12.4172 18.6328 12.4266 19.3781 12.7734 19.8984C12.9703 20.1938 13.275 20.2875 13.7297 20.2781C14.1844 20.2734 14.7281 20.1281 15.1781 19.9875C16.7578 19.4719 18.4125 18.3422 19.1625 16.7156C19.5 15.9844 19.5656 14.4891 19.5 13.2234C19.4484 12.1922 19.3453 11.4563 19.3031 11.1609L18.1547 10.7953ZM12.9094 11.175C12.8578 11.175 12.8016 11.175 12.75 11.1797C10.9547 11.2734 8.90157 11.625 7.13907 12.3516C5.37188 13.0734 3.90704 14.1563 3.19594 15.6891C2.9386 16.2422 2.95454 16.9875 3.18844 17.6156C3.42235 18.2437 3.85782 18.7078 4.31625 18.8297C6.32813 19.3547 9.06094 19.5797 11.7375 19.6266C11.5734 19.0078 11.6297 18.3328 11.7797 17.6859C10.3219 18.2391 8.19375 18.3703 5.50782 17.5219L5.10938 17.3953L5.23125 16.9969C5.57813 15.825 6.6375 14.2922 8.3625 13.5L8.71875 14.2687C7.45782 14.8453 6.58125 15.9656 6.19219 16.8422C8.98126 17.625 11.0063 17.2172 12.1125 16.5938C12.3281 16.0078 12.5906 15.4594 12.825 14.9859C13.4109 13.8047 14.6391 12.6047 15.7359 11.6531C14.7656 11.3719 13.8328 11.1844 13.0641 11.175H12.9094ZM20.3578 13.4859C20.4094 14.7234 20.3719 16.1063 19.9313 17.0719C19.4906 18.0234 18.8109 18.8062 18.0188 19.4297C18.3891 19.3969 18.7406 19.3641 19.0547 19.3266C19.6359 19.2656 20.1141 19.1953 20.4516 19.1297C20.6203 19.0922 20.7563 19.0594 20.8453 19.0359C20.8781 19.0219 20.8969 19.0125 20.9109 19.0031C21.4781 18.2953 22.0266 17.625 22.3922 16.9313C22.7344 16.2656 22.9219 15.5906 22.8328 14.775C22.6406 14.6625 21.7078 14.1328 20.3578 13.4859ZM2.49094 18.1359C2.23782 18.2484 2.01657 18.3609 1.83282 18.4781C1.32235 18.8016 1.14563 19.0875 1.14563 19.2891C1.14563 19.4906 1.32235 19.7766 1.83282 20.1C2.34329 20.4234 3.13547 20.7375 4.12735 21.0047C6.1125 21.5297 8.90157 21.8672 11.9766 21.8672C15.0516 21.8672 17.8406 21.5297 19.8234 21.0047C20.8172 20.7375 21.6047 20.4234 22.1156 20.1C22.6266 19.7766 22.8047 19.4906 22.8047 19.2891C22.8047 19.1156 22.6688 18.8766 22.3031 18.6047C22.0453 18.9422 21.7781 19.2703 21.5156 19.5984L21.5016 19.6219L21.4781 19.6406C21.3281 19.7812 21.2297 19.7953 21.0938 19.8375C20.9625 19.8797 20.8031 19.9172 20.6156 19.9547C20.2406 20.0297 19.7438 20.1 19.1484 20.1656C18.3938 20.25 17.4797 20.325 16.4719 20.3812C16.125 20.5453 15.7781 20.6812 15.4359 20.7938H15.4313C14.9578 20.9438 14.3531 21.1125 13.7438 21.1219C13.1813 21.1359 12.5531 20.9766 12.1547 20.4797C9.31407 20.4516 6.35157 20.2313 4.10344 19.6453C3.35719 19.4484 2.81204 18.8484 2.49094 18.1359Z" fill="#FF8F0F"/>
</svg>
