<svg width="32" height="32" viewBox="0 0 32 32" fill="none" xmlns="http://www.w3.org/2000/svg">
<path d="M16.0133 2.68134C17.0504 2.6814 18.0519 3.05916 18.8307 3.744L19.036 3.93734L19.9667 4.868C20.2221 5.12175 20.5556 5.28194 20.9133 5.32267L21.0933 5.33334H22.4267C23.5163 5.33327 24.5646 5.7501 25.3567 6.49832C26.1489 7.24655 26.6247 8.26948 26.6867 9.35734L26.6933 9.6V10.9333C26.6933 11.2933 26.816 11.644 27.0373 11.924L27.1573 12.0573L28.0867 12.988C28.8569 13.7539 29.3061 14.7848 29.3425 15.8705C29.3789 16.9562 28.9999 18.0148 28.2827 18.8307L28.0893 19.036L27.1587 19.9667C26.9049 20.2221 26.7447 20.5556 26.704 20.9133L26.6933 21.0933V22.4267C26.6934 23.5163 26.2766 24.5646 25.5283 25.3568C24.7801 26.1489 23.7572 26.6247 22.6693 26.6867L22.4267 26.6933H21.0933C20.7338 26.6935 20.3849 26.8146 20.1027 27.0373L19.9693 27.1573L19.0387 28.0867C18.2727 28.857 17.2418 29.3061 16.1562 29.3425C15.0705 29.3789 14.0118 28.9999 13.196 28.2827L12.9907 28.0893L12.06 27.1587C11.8046 26.9049 11.471 26.7447 11.1133 26.704L10.9333 26.6933H9.59999C8.51037 26.6934 7.46201 26.2766 6.6699 25.5284C5.87779 24.7801 5.40196 23.7572 5.33999 22.6693L5.33332 22.4267V21.0933C5.3332 20.7338 5.21203 20.3849 4.98932 20.1027L4.86932 19.9693L3.93999 19.0387C3.1697 18.2727 2.72055 17.2418 2.68413 16.1562C2.64771 15.0705 3.02676 14.0118 3.74399 13.196L3.93732 12.9907L4.86799 12.06C5.12174 11.8046 5.28193 11.4711 5.32266 11.1133L5.33332 10.9333V9.6L5.33999 9.35734C5.39953 8.31126 5.84189 7.32367 6.58277 6.58279C7.32366 5.8419 8.31125 5.39954 9.35732 5.34L9.59999 5.33334H10.9333C11.2928 5.33322 11.6418 5.21204 11.924 4.98934L12.0573 4.86934L12.988 3.94C13.3844 3.54119 13.8558 3.22468 14.375 3.00867C14.8942 2.79266 15.451 2.68142 16.0133 2.68134ZM20.9427 12.3907C20.6926 12.1407 20.3535 12.0003 20 12.0003C19.6464 12.0003 19.3074 12.1407 19.0573 12.3907L14.6667 16.78L12.9427 15.0573L12.8173 14.9467C12.5493 14.7395 12.2125 14.642 11.8753 14.6741C11.5381 14.7063 11.2257 14.8655 11.0017 15.1196C10.7776 15.3737 10.6587 15.7036 10.669 16.0422C10.6794 16.3808 10.8182 16.7027 11.0573 16.9427L13.724 19.6093L13.8493 19.72C14.1059 19.919 14.4262 20.0176 14.7502 19.9972C15.0743 19.9768 15.3797 19.8389 15.6093 19.6093L20.9427 14.276L21.0533 14.1507C21.2523 13.8941 21.3509 13.5738 21.3305 13.2498C21.3101 12.9257 21.1722 12.6203 20.9427 12.3907Z" fill="#74E676"/>
</svg>
