<svg width="24" height="24" viewBox="0 0 24 24" fill="none" xmlns="http://www.w3.org/2000/svg">
<path d="M15.6542 18.5698C15.313 18.6373 7.21862 19.6629 7.21862 19.6629C7.21862 19.6629 7.04799 21.0973 7.28612 21.5754C7.52424 22.0536 9.06174 23.1467 11.9642 23.1467C14.8667 23.1467 16.4717 22.2242 16.7117 21.6786C16.9517 21.1329 16.6086 18.8098 16.6086 18.8098L15.6542 18.5698Z" fill="#FF8F0F"/>
<path d="M6.38807 8.03247L0.877441 10.5843C0.877441 10.5843 1.31807 15.7762 4.76432 18.6187C9.72369 22.7081 17.1487 21.4893 20.5706 17.4881C23.6943 13.8356 23.1224 8.9906 23.1224 8.9906L6.38807 8.03247Z" fill="#FFBC69"/>
<path d="M0.740487 9.46862C0.586737 11.6942 2.80299 14.4149 11.9399 14.518C21.4686 14.6249 24.8455 9.93174 22.7117 7.47924C20.578 5.02674 15.388 4.74174 11.7974 4.77737C8.20674 4.81299 0.989862 5.85549 0.740487 9.46862Z" fill="#FF8F0F"/>
<path d="M1.94264 10.3761C1.94264 10.3761 1.84327 9.91299 2.00452 9.42924C2.16577 8.94549 2.45452 8.80486 2.49577 8.64924C2.53702 8.49361 2.14139 7.67049 2.80889 6.58861C3.47639 5.50674 3.90952 5.73549 4.09327 5.50674C4.27702 5.27799 4.26764 4.50549 5.09639 3.76861C5.92514 3.03174 6.68452 3.10111 6.68452 3.10111C6.68452 3.10111 7.05389 2.13361 7.95014 1.76611C8.84639 1.39861 9.75014 1.62549 9.75014 1.62549C9.75014 1.62549 10.5564 0.888614 11.6851 0.866114C12.8139 0.843614 13.1364 1.16611 13.3895 1.18861C13.6426 1.21111 14.2408 0.912989 15.3001 1.30299C16.3595 1.69486 16.3745 2.28924 16.6126 2.38486C16.8508 2.48049 17.4883 2.29299 18.4558 3.07486C19.4233 3.85674 19.2639 4.21674 19.4008 4.36486C19.5358 4.51299 20.4451 4.51861 20.9439 5.79174C21.3114 6.72924 21.1145 7.41736 21.152 7.51861C21.1895 7.61986 21.7108 8.16174 21.9358 8.71674C22.1439 9.23424 22.2358 9.95986 22.2358 9.95986C22.2358 9.95986 21.752 10.8074 20.5801 11.578C19.3408 12.3936 5.42264 12.4292 4.50014 12.1349C2.90639 11.6305 1.94264 10.3761 1.94264 10.3761Z" fill="#CDCBC0"/>
<path d="M3.46311 8.97188C3.46311 8.97188 3.35999 7.81313 3.67124 7.17563C4.10812 6.2775 4.96124 6.18563 4.96124 6.18563C4.96124 6.18563 5.05686 5.16188 5.78999 4.5975C6.68812 3.9075 7.03312 4.09125 7.33312 3.81375C7.63312 3.53813 7.81686 3.05438 8.55374 2.73188C9.29062 2.40938 9.88874 2.6175 10.1419 2.50125C10.395 2.385 10.8 1.9125 11.6062 1.85813C12.6431 1.78875 12.7106 2.19 13.305 2.25375C13.7269 2.29875 14.0419 2.04938 14.94 2.325C15.8381 2.60063 15.8681 3.14438 16.1531 3.33C16.4381 3.51563 17.1412 3.345 17.9025 3.92813C18.5925 4.45688 18.585 4.94625 18.7781 5.14875C18.9694 5.35125 19.5375 5.42438 19.9519 6.50813C20.2969 7.41 20.0419 7.67625 20.1356 7.95938C20.2294 8.2425 20.7431 8.53875 21.0562 9.38625C21.4481 10.4456 21.3319 10.9988 21.3319 10.9988C21.3319 10.9988 19.4437 13.5131 11.0625 13.4156C5.02874 13.3463 2.86499 11.2519 2.86499 11.2519C2.86499 11.2519 2.77312 10.1231 3.00374 9.68625C3.23437 9.24938 3.46311 8.97188 3.46311 8.97188Z" fill="white"/>
<path d="M11.4693 12.797C11.6549 13.2151 12.3861 13.2845 13.0011 12.5964C13.5524 11.9776 13.2299 11.0251 12.6393 11.1058C12.1011 11.1789 12.2774 11.7376 12.0205 11.9514C11.7636 12.1651 11.308 12.4333 11.4693 12.797ZM14.3436 10.2451C14.503 10.5864 15.4593 10.5133 15.8211 9.88325C16.183 9.25138 16.1305 8.32888 15.6055 8.33825C14.9211 8.35138 15.1761 9.05075 14.9343 9.2645C14.6924 9.47825 14.0755 9.66763 14.3436 10.2451ZM18.0374 6.76513C17.6436 6.89263 17.8499 7.41013 17.6886 7.75888C17.5274 8.10763 17.098 8.49763 17.4336 8.79388C17.7693 9.09013 18.5343 8.60638 18.643 7.86763C18.748 7.12888 18.4536 6.632 18.0374 6.76513ZM16.3761 11.4376C16.1249 11.8408 15.6505 11.6383 15.5568 12.0564C15.463 12.4726 16.4305 12.6208 16.9668 12.1239C17.5049 11.627 17.3568 10.7814 17.0211 10.7139C16.6855 10.6445 16.5768 11.1151 16.3761 11.4376ZM14.8611 6.83638C15.0824 7.08388 15.9693 6.82138 16.2636 5.93825C16.558 5.05513 15.9768 4.48513 15.5849 4.68575C15.193 4.88638 15.4724 5.312 15.3786 5.58763C15.2849 5.86325 14.428 6.35263 14.8611 6.83638Z" fill="#D4D4D4"/>
</svg>
