<svg width="15" height="15" viewBox="0 0 15 15" fill="none" xmlns="http://www.w3.org/2000/svg">
<path d="M8.61007 0.680541C9.49835 -0.226538 10.9389 -0.22683 11.8278 0.679564L13.8484 2.73913C14.7297 3.6378 14.7389 5.09365 13.8689 6.00378L6.31711 13.9042C5.73311 14.5151 4.93177 14.8593 4.09543 14.8593H1.86105C0.80246 14.8589 -0.0427677 13.959 0.00167582 12.8798L0.0973789 10.5536C0.130068 9.7612 0.453352 9.01018 1.00265 8.4491L8.61007 0.680541ZM14.364 13.5311C14.7067 13.5311 14.9851 13.8142 14.9851 14.1639C14.9851 14.5137 14.7067 14.7968 14.364 14.7968H9.34543C9.00273 14.7967 8.72531 14.5136 8.72531 14.1639C8.72531 13.8142 9.00273 13.5312 9.34543 13.5311H14.364ZM1.88058 9.3446C1.55129 9.68111 1.3583 10.1312 1.33859 10.6063L1.24093 12.9325C1.22609 13.2923 1.50911 13.5926 1.86203 13.5927H4.0964C4.59791 13.5925 5.07818 13.3857 5.42843 13.0194L10.7732 7.42761L7.26242 3.84753L1.88058 9.3446ZM10.9509 1.57507C10.5468 1.16308 9.89177 1.16374 9.488 1.57605L8.14035 2.95105L11.6403 6.52038L12.9812 5.11902C13.3765 4.70538 13.3718 4.04409 12.9714 3.63562L10.9509 1.57507Z" fill="#505050"/>
</svg>
