<svg width="336" height="362" viewBox="0 0 336 362" fill="none" xmlns="http://www.w3.org/2000/svg">
<path d="M92.501 23.6972C93.101 35.2472 82.676 44.9972 70.076 44.9972C57.476 44.9972 46.301 34.6472 47.576 23.1722C49.376 7.04719 61.301 5.99719 70.076 5.99719C75.401 5.99719 91.151 1.34719 92.501 23.6972Z" fill="#EF4D3C"/>
<path d="M54.25 20.2522C58.9 13.0522 66.85 15.1522 68.95 12.4522C68.95 17.6272 72.7 15.0772 74.575 17.4022C76.975 20.4022 77.875 25.7272 80.725 26.7772C77.95 20.8522 82.45 21.0772 76.15 13.1272C79.525 15.2272 81.25 13.1272 85.825 15.0022C81.85 8.70225 75.625 10.5022 75.625 10.5022C75.625 10.5022 79.525 6.90224 82.825 8.77724C79.375 3.67724 69.4 10.1272 69.4 10.1272C69.4 10.1272 65.275 3.07725 56.425 10.5022C61.6 8.40224 67.3 10.5022 67.3 10.5022C67.3 10.5022 57.925 8.17724 54.25 20.2522Z" fill="#8CC63E"/>
<path d="M54.25 20.2506C54.25 20.2506 59.725 10.1256 69.175 11.0256C60.85 7.20059 54.25 15.3006 54.25 20.2506Z" fill="#64892F"/>
<path d="M56.4238 10.5045C56.4238 10.5045 63.3238 5.32946 69.3988 10.5045C67.5988 4.20446 58.3738 7.12946 56.4238 10.5045ZM70.8988 11.1795C80.0488 15.3795 76.9738 20.1795 80.7238 26.9295C78.1738 21.3045 84.4738 11.1795 70.8988 11.1795Z" fill="#64892F"/>
<path d="M67.2988 10.502C67.2988 10.502 69.3988 7.352 70.1488 3.452C70.2238 2.927 72.4738 3.002 72.3988 3.527C71.6488 8.552 73.6738 11.327 73.6738 11.327C73.6738 11.327 72.0988 11.852 70.1488 11.852C68.1988 11.927 67.2988 10.502 67.2988 10.502Z" fill="#64892F"/>
<path d="M71.2773 3.9C71.8987 3.9 72.4023 3.69853 72.4023 3.45C72.4023 3.20147 71.8987 3 71.2773 3C70.656 3 70.1523 3.20147 70.1523 3.45C70.1523 3.69853 70.656 3.9 71.2773 3.9Z" fill="#8CC63E"/>
<mask id="path-7-inside-1_0_1" fill="white">
<path d="M48 56H96V104H48V56Z"/>
</mask>
<path d="M48 56H96V104H48V56Z" fill="white"/>
<path d="M48 56V55H47V56H48ZM96 56H97V55H96V56ZM96 104V105H97V104H96ZM48 104H47V105H48V104ZM48 56V57H96V56V55H48V56ZM96 56H95V104H96H97V56H96ZM96 104V103H48V104V105H96V104ZM48 104H49V56H48H47V104H48Z" fill="#E7000B" mask="url(#path-7-inside-1_0_1)"/>
<mask id="path-9-inside-2_0_1" fill="white">
<path d="M48 153H96V201H48V153Z"/>
</mask>
<path d="M48 153H96V201H48V153Z" fill="white"/>
<path d="M48 153V152H47V153H48ZM96 153H97V152H96V153ZM96 201V202H97V201H96ZM48 201H47V202H48V201ZM48 153V154H96V153V152H48V153ZM96 153H95V201H96H97V153H96ZM96 201V200H48V201V202H96V201ZM48 201H49V153H48H47V201H48Z" fill="#FFBC69" mask="url(#path-9-inside-2_0_1)"/>
<mask id="path-11-inside-3_0_1" fill="white">
<path d="M0 153H48V201H0V153Z"/>
</mask>
<path d="M0 153H48V201H0V153Z" fill="white"/>
<path d="M0 153V152H-1V153H0ZM0 201H-1V202H0V201ZM0 153V154H48V153V152H0V153ZM48 201V200H0V201V202H48V201ZM0 201H1V153H0H-1V201H0Z" fill="#FFBC69" mask="url(#path-11-inside-3_0_1)"/>
<mask id="path-13-inside-4_0_1" fill="white">
<path d="M96 56H144V104H96V56Z"/>
</mask>
<path d="M96 56H144V104H96V56Z" fill="white"/>
<path d="M144 56H145V55H144V56ZM144 104V105H145V104H144ZM96 56V57H144V56V55H96V56ZM144 56H143V104H144H145V56H144ZM144 104V103H96V104V105H144V104Z" fill="#E7000B" mask="url(#path-13-inside-4_0_1)"/>
<mask id="path-15-inside-5_0_1" fill="white">
<path d="M96 153H144V201H96V153Z"/>
</mask>
<path d="M96 153H144V201H96V153Z" fill="white"/>
<path d="M144 153H145V152H144V153ZM144 201V202H145V201H144ZM96 153V154H144V153V152H96V153ZM144 153H143V201H144H145V153H144ZM144 201V200H96V201V202H144V201Z" fill="#FFBC69" mask="url(#path-15-inside-5_0_1)"/>
<mask id="path-17-inside-6_0_1" fill="white">
<path d="M144 56H192V104H144V56Z"/>
</mask>
<path d="M144 56H192V104H144V56Z" fill="white"/>
<path d="M144 56V57H192V56V55H144V56ZM192 104V103H144V104V105H192V104Z" fill="#E7000B" mask="url(#path-17-inside-6_0_1)"/>
<mask id="path-19-inside-7_0_1" fill="white">
<path d="M144 153H192V201H144V153Z"/>
</mask>
<path d="M144 153H192V201H144V153Z" fill="white"/>
<path d="M144 153V154H192V153V152H144V153ZM192 201V200H144V201V202H192V201Z" fill="#FFBC69" mask="url(#path-19-inside-7_0_1)"/>
<path d="M116.846 176.192H118.142V181.968C118.089 181.989 118.009 182.011 117.902 182.032C117.796 182.064 117.678 182.08 117.55 182.08C117.316 182.08 117.14 182.032 117.022 181.936C116.905 181.84 116.846 181.691 116.846 181.488V176.192ZM118.142 177.264H116.846V172.304C116.9 172.283 116.98 172.261 117.086 172.24C117.204 172.208 117.326 172.192 117.454 172.192C117.689 172.192 117.86 172.24 117.966 172.336C118.084 172.421 118.142 172.571 118.142 172.784V177.264Z" fill="black"/>
<path d="M27.8249 173.344C27.8249 173.483 27.7769 173.611 27.6809 173.728C27.5955 173.835 27.4942 173.915 27.3769 173.968C27.1102 173.776 26.7849 173.595 26.4009 173.424C26.0275 173.253 25.5422 173.168 24.9449 173.168C24.2942 173.168 23.7075 173.317 23.1849 173.616C22.6729 173.915 22.2622 174.363 21.9529 174.96C21.6542 175.547 21.5049 176.277 21.5049 177.152C21.5049 178.464 21.8249 179.451 22.4649 180.112C23.1155 180.773 23.9582 181.104 24.9929 181.104C25.5475 181.104 26.0329 181.024 26.4489 180.864C26.8649 180.704 27.2062 180.523 27.4729 180.32C27.5795 180.363 27.6809 180.443 27.7769 180.56C27.8729 180.667 27.9209 180.795 27.9209 180.944C27.9209 181.051 27.8889 181.157 27.8249 181.264C27.7715 181.36 27.6755 181.456 27.5369 181.552C27.2915 181.723 26.9555 181.872 26.5289 182C26.1022 182.139 25.5582 182.208 24.8969 182.208C24.0115 182.208 23.2062 182.021 22.4809 181.648C21.7662 181.264 21.2009 180.699 20.7849 179.952C20.3689 179.205 20.1609 178.272 20.1609 177.152C20.1609 176.032 20.3742 175.093 20.8009 174.336C21.2382 173.579 21.8089 173.013 22.5129 172.64C23.2275 172.256 24.0062 172.064 24.8489 172.064C25.4355 172.064 25.9529 172.128 26.4009 172.256C26.8489 172.384 27.1955 172.549 27.4409 172.752C27.6969 172.944 27.8249 173.141 27.8249 173.344Z" fill="black"/>
<path d="M72.4885 76.376L72.4085 75.272H76.1365C76.1685 75.3147 76.2005 75.384 76.2325 75.48C76.2645 75.576 76.2805 75.6773 76.2805 75.784C76.2805 75.9547 76.2378 76.0987 76.1525 76.216C76.0672 76.3227 75.9445 76.376 75.7845 76.376H72.4885ZM72.5205 75.272L72.6005 76.376H68.8565C68.8245 76.3227 68.7925 76.248 68.7605 76.152C68.7285 76.056 68.7125 75.9547 68.7125 75.848C68.7125 75.6667 68.7552 75.528 68.8405 75.432C68.9258 75.3253 69.0485 75.272 69.2085 75.272H72.5205ZM71.8485 75.944H73.1445V84.968C73.0912 84.9893 73.0058 85.0107 72.8885 85.032C72.7818 85.064 72.6698 85.08 72.5525 85.08C72.3178 85.08 72.1418 85.032 72.0245 84.936C71.9072 84.84 71.8485 84.6907 71.8485 84.488V75.944Z" fill="black"/>
<mask id="path-24-inside-8_0_1" fill="white">
<path d="M192 56H240V104H192V56Z"/>
</mask>
<path d="M192 56H240V104H192V56Z" fill="white"/>
<path d="M192 56V55H191V56H192ZM240 56H241V55H240V56ZM240 104V105H241V104H240ZM192 104H191V105H192V104ZM192 56V57H240V56V55H192V56ZM240 56H239V104H240H241V56H240ZM240 104V103H192V104V105H240V104ZM192 104H193V56H192H191V104H192Z" fill="#E7000B" mask="url(#path-24-inside-8_0_1)"/>
<mask id="path-26-inside-9_0_1" fill="white">
<path d="M192 153H240V201H192V153Z"/>
</mask>
<path d="M192 153H240V201H192V153Z" fill="white"/>
<path d="M192 153V152H191V153H192ZM240 153H241V152H240V153ZM240 201V202H241V201H240ZM192 201H191V202H192V201ZM192 153V154H240V153V152H192V153ZM240 153H239V201H240H241V153H240ZM240 201V200H192V201V202H240V201ZM192 201H193V153H192H191V201H192Z" fill="#FFBC69" mask="url(#path-26-inside-9_0_1)"/>
<mask id="path-28-inside-10_0_1" fill="white">
<path d="M240 56H288V104H240V56Z"/>
</mask>
<path d="M240 56H288V104H240V56Z" fill="white"/>
<path d="M288 56H289V55H288V56ZM288 104V105H289V104H288ZM240 56V57H288V56V55H240V56ZM288 56H287V104H288H289V56H288ZM288 104V103H240V104V105H288V104Z" fill="#E7000B" mask="url(#path-28-inside-10_0_1)"/>
<mask id="path-30-inside-11_0_1" fill="white">
<path d="M240 153H288V201H240V153Z"/>
</mask>
<path d="M240 153H288V201H240V153Z" fill="white"/>
<path d="M288 153H289V152H288V153ZM288 201V202H289V201H288ZM240 153V154H288V153V152H240V153ZM288 153H287V201H288H289V153H288ZM288 201V200H240V201V202H288V201Z" fill="#FFBC69" mask="url(#path-30-inside-11_0_1)"/>
<mask id="path-32-inside-12_0_1" fill="white">
<path d="M288 56H336V104H288V56Z"/>
</mask>
<path d="M288 56H336V104H288V56Z" fill="white"/>
<path d="M336 56H337V55H336V56ZM336 104V105H337V104H336ZM288 56V57H336V56V55H288V56ZM336 56H335V104H336H337V56H336ZM336 104V103H288V104V105H336V104Z" fill="#E7000B" mask="url(#path-32-inside-12_0_1)"/>
<mask id="path-34-inside-13_0_1" fill="white">
<path d="M288 153H336V201H288V153Z"/>
</mask>
<path d="M288 153H336V201H288V153Z" fill="white"/>
<path d="M336 153H337V152H336V153ZM336 201V202H337V201H336ZM288 153V154H336V153V152H288V153ZM336 153H335V201H336H337V153H336ZM336 201V200H288V201V202H336V201Z" fill="#FFBC69" mask="url(#path-34-inside-13_0_1)"/>
<path d="M5.7 235.3C7.05 237.475 8.55 237.775 9.6 236.5C11.25 234.55 9.45 232.075 7.5 231.4C4.275 230.125 1.5 233.725 1.5 233.725C1.5 233.725 4.575 233.425 5.7 235.3Z" fill="#F29A2E"/>
<path d="M32.1012 227.652C26.3262 231.027 31.1262 239.127 20.7012 241.302L31.8012 246.777C34.0512 250.677 40.2762 250.977 40.2762 250.977C40.2762 250.977 41.8512 246.327 40.5762 242.877C44.0262 242.877 46.4262 240.777 46.4262 240.777C46.4262 240.777 44.4762 233.877 38.5512 233.877C44.4012 231.477 45.4512 226.527 45.4512 226.527C45.4512 226.527 40.2762 222.927 32.1012 227.652Z" fill="#E1EAF2"/>
<path d="M26.7738 266.501H16.0488C16.0488 265.601 22.3488 265.451 22.6488 259.451C23.6238 266.126 26.7738 265.601 26.7738 266.501Z" fill="#F4BC58"/>
<path d="M37.0488 242.948C37.0488 251.573 29.9988 260.423 21.2988 260.423C12.5988 260.423 5.54883 251.573 5.54883 242.948C5.54883 237.173 17.9988 241.223 21.2988 241.223C29.9988 241.148 37.0488 234.248 37.0488 242.948Z" fill="#D1DCE6"/>
<path d="M27.3 256.897C27.3 258.622 24.825 262.372 22.65 262.372C20.475 262.372 18 259.822 18 258.097C18 256.372 27.3 256.072 27.3 256.897Z" fill="#D1DCE6"/>
<path d="M4.875 239.723C4.875 241.973 5.325 248.498 5.325 248.498L7.35 245.948L9.75 248.798L10.275 244.823L13.95 247.448L13.275 243.548L17.7 243.998L15.675 241.598L18.75 239.573C18.75 239.573 15 240.398 15.075 238.073C15.15 235.748 17.025 229.148 14.7 228.173C10.425 226.598 4.875 230.198 4.875 239.723Z" fill="#E1EAF2"/>
<path d="M4.87266 232.304C5.16261 232.304 5.39766 232.203 5.39766 232.079C5.39766 231.954 5.16261 231.854 4.87266 231.854C4.58271 231.854 4.34766 231.954 4.34766 232.079C4.34766 232.203 4.58271 232.304 4.87266 232.304Z" fill="#3E4347"/>
<path d="M8.625 233.652C9.24632 233.652 9.75 233.149 9.75 232.527C9.75 231.906 9.24632 231.402 8.625 231.402C8.00368 231.402 7.5 231.906 7.5 232.527C7.5 233.149 8.00368 233.652 8.625 233.652Z" fill="#3E4347"/>
<path d="M5.84867 237.7C5.84867 240.1 4.27367 238.375 4.27367 238.375C3.74867 238.375 1.57367 240.025 2.32367 237.25C3.29867 233.65 7.04867 231.25 7.04867 231.25C7.04867 231.25 5.84867 233.35 5.84867 237.7Z" fill="#E24B4B"/>
<path d="M15.5993 227.948V227.048C15.4493 225.173 18.1493 224.423 17.8493 223.448C17.3993 222.173 13.8743 222.998 12.1493 225.773C11.9243 226.073 11.7743 226.448 11.6993 226.898C11.6243 226.598 11.5493 226.298 11.3993 225.998C10.5743 224.273 13.0493 222.698 12.2993 221.873C11.3243 220.748 8.39929 222.698 7.72429 225.923C7.57429 226.598 7.57429 227.273 7.79929 227.948C7.72429 227.873 7.64929 227.798 7.57429 227.798C6.29929 226.823 7.57429 224.798 6.67429 224.348C5.32429 223.748 4.12429 226.448 4.79929 229.073C5.24929 230.573 6.89929 232.148 8.24929 230.873C8.69929 230.498 9.74929 229.898 10.3493 229.673C10.7993 229.523 11.9993 229.598 12.7493 230.123C13.4243 230.573 13.9493 231.473 14.9243 231.473C19.1993 231.623 21.5243 227.498 19.9493 226.598C19.1243 225.998 17.8493 227.498 15.5993 227.948Z" fill="#E24B4B"/>
<path d="M31.8729 252.924C31.1979 251.274 29.2479 250.374 29.2479 250.374C31.2729 249.324 32.4729 247.074 32.4729 247.074C31.4229 246.624 27.3729 246.324 27.3729 246.324C28.2729 245.424 29.0229 244.149 29.0229 244.149C29.0229 244.149 24.3729 243.024 20.4729 245.124C15.3729 247.974 16.8729 254.724 22.6479 255.474C29.0229 256.299 31.8729 252.924 31.8729 252.924Z" fill="#E1EAF2"/>
<mask id="path-47-inside-14_0_1" fill="white">
<path d="M95 104H144V153H95V104Z"/>
</mask>
<path d="M95 104H144V153H95V104Z" fill="white"/>
<path d="M144 104H143V153H144H145V104H144ZM95 153H96V104H95H94V153H95Z" fill="#C0CA33" mask="url(#path-47-inside-14_0_1)"/>
<mask id="path-49-inside-15_0_1" fill="white">
<path d="M95 201H144V250H95V201Z"/>
</mask>
<path d="M95 201H144V250H95V201Z" fill="white"/>
<path d="M144 250V251H145V250H144ZM95 250H94V251H95V250ZM144 201H143V250H144H145V201H144ZM144 250V249H95V250V251H144V250ZM95 250H96V201H95H94V250H95Z" fill="#C0CA33" mask="url(#path-49-inside-15_0_1)"/>
<mask id="path-51-inside-16_0_1" fill="white">
<path d="M95 250H144V299H95V250Z"/>
</mask>
<path d="M95 250H144V299H95V250Z" fill="white"/>
<path d="M144 299V300H145V299H144ZM95 299H94V300H95V299ZM144 250H143V299H144H145V250H144ZM144 299V298H95V299V300H144V299ZM95 299H96V250H95H94V299H95Z" fill="#C0CA33" mask="url(#path-51-inside-16_0_1)"/>
<path d="M111.998 328.678C115.583 330.797 122.265 332.496 126.364 331.742C130.114 331.052 132.938 329.274 135.12 326.424C137.246 323.649 137.704 320.473 136.819 320.548C135.623 320.649 134.216 321.486 132.563 322.566C126.506 326.518 119.374 329.087 111.998 328.678Z" fill="url(#paint0_linear_0_1)"/>
<path d="M95.7264 338.195C93.2214 344.071 94.9576 350.787 97.3989 352.036C99.8401 353.285 106.211 350.918 109.594 345.275C114.338 337.358 111.75 333.387 107.921 331.433C104.093 329.48 98.8951 330.758 95.7264 338.195ZM113.513 350.161C115.301 356.18 120.833 360.173 123.465 359.585C126.098 358.996 129.431 353.206 128.449 346.82C127.073 337.85 122.621 336.473 118.496 337.396C114.375 338.318 111.248 342.548 113.513 350.161Z" fill="#C0CA33"/>
<path d="M118.496 337.397C115.376 338.094 112.834 340.685 112.755 345.197C113.831 343.929 115.567 343.164 117.262 343.164C119.674 343.164 121.935 344.435 123.69 346.085C125.771 348.043 127.286 350.585 128.044 353.342C128.591 351.395 128.805 349.149 128.449 346.82C127.072 337.85 122.621 336.474 118.496 337.397ZM107.917 331.434C106.132 330.523 104.047 330.317 102.011 331.108C102.195 331.097 102.375 331.089 102.555 331.089C103.567 331.093 104.681 331.247 105.36 331.997C105.765 332.443 105.971 333.058 106.447 333.429C106.68 333.609 106.961 333.718 107.224 333.853C108.821 334.678 109.676 336.489 110.017 338.255C110.434 340.419 110.25 342.62 109.867 344.803C114.225 337.202 111.671 333.35 107.917 331.434Z" fill="#A3B523"/>
<path d="M127.076 336.072C112.927 333.42 99.3599 321.945 97.3162 319.909C95.2724 317.873 99.0224 314.22 101.914 317.993C104.752 321.702 114.746 330.81 127.076 334.002V336.072Z" fill="#87A194"/>
<path d="M118.129 340.684C118.346 340.763 118.616 340.647 118.785 340.373C119.183 339.732 118.639 339.496 118.418 339.136C118.084 338.588 117.923 337.846 117.851 337.133C117.754 336.188 117.814 335.198 117.87 334.212C117.896 333.796 117.915 333.357 117.773 333.016C117.533 332.446 116.209 331.047 116.029 331.921C115.283 335.532 116.61 339.436 118.009 340.613C118.046 340.643 118.088 340.669 118.129 340.684Z" fill="#69937D"/>
<path d="M106.89 333.411C106.631 333.411 106.391 333.235 106.32 332.968C106.151 332.335 106.815 332.308 107.186 332.08C107.749 331.738 108.206 331.191 108.562 330.636C109.031 329.905 109.354 329.087 109.676 328.277C109.811 327.932 109.961 327.576 110.242 327.343C110.715 326.957 112.039 327.321 111.892 328.078C111.51 330.077 108.975 332.852 107.047 333.388C106.995 333.403 106.942 333.411 106.89 333.411Z" fill="#87A194"/>
<path d="M115.083 329.824C115.083 329.824 121.548 345.968 132.468 349.41C136.218 350.592 138.78 350.46 139.335 349.065C140.306 346.632 136.788 341.262 134.257 338.76C128.25 332.813 115.083 329.824 115.083 329.824Z" fill="url(#paint1_linear_0_1)"/>
<path opacity="0.37" d="M115.095 329.852C115.316 330.399 121.74 346.029 132.468 349.412C135.577 350.394 137.865 350.465 138.877 349.667C137.542 348.309 134.921 345.752 130.728 342.088C125.272 337.322 117.442 331.558 115.095 329.852Z" fill="#212121"/>
<path d="M308.643 173.376L309.731 173.28C309.773 173.611 309.811 174 309.843 174.448C309.875 174.896 309.896 175.36 309.907 175.84C309.928 176.309 309.939 176.757 309.939 177.184V181.968C309.885 181.989 309.8 182.011 309.683 182.032C309.576 182.064 309.464 182.08 309.347 182.08C309.112 182.08 308.936 182.037 308.819 181.952C308.701 181.856 308.643 181.707 308.643 181.504V173.376ZM316.355 180.896L315.251 180.992C315.144 180.096 315.08 179.184 315.059 178.256C315.048 177.317 315.043 176.411 315.043 175.536V172.304C315.107 172.283 315.192 172.261 315.299 172.24C315.405 172.208 315.523 172.192 315.651 172.192C315.885 172.192 316.061 172.24 316.179 172.336C316.296 172.421 316.355 172.565 316.355 172.768V180.896ZM316.355 180.416V181.824C316.259 181.899 316.136 181.963 315.987 182.016C315.837 182.069 315.672 182.096 315.491 182.096C315.235 182.096 315.016 182.048 314.835 181.952C314.653 181.845 314.488 181.659 314.339 181.392L311.299 176.272C311.139 175.984 310.963 175.669 310.771 175.328C310.579 174.976 310.397 174.645 310.227 174.336C310.056 174.016 309.923 173.755 309.827 173.552L308.643 173.856V172.464C308.728 172.379 308.845 172.309 308.995 172.256C309.155 172.203 309.325 172.176 309.507 172.176C309.763 172.176 309.981 172.229 310.163 172.336C310.344 172.432 310.509 172.613 310.659 172.88L313.715 178C313.885 178.288 314.061 178.608 314.243 178.96C314.435 179.301 314.611 179.632 314.771 179.952C314.931 180.261 315.059 180.517 315.155 180.72L316.355 180.416Z" fill="black"/>
<path d="M116.674 273.144H117.97V278.872C117.927 278.883 117.847 278.909 117.73 278.952C117.613 278.984 117.495 279 117.378 279C117.165 279 116.994 278.936 116.866 278.808C116.738 278.669 116.674 278.499 116.674 278.296V273.144ZM117.97 275.032L116.674 275.016V269.976C116.674 269.763 116.738 269.592 116.866 269.464C116.994 269.336 117.165 269.272 117.378 269.272C117.495 269.272 117.613 269.288 117.73 269.32C117.847 269.352 117.927 269.379 117.97 269.4V275.032ZM117.378 274.552V273.464H122.194C122.226 273.507 122.258 273.576 122.29 273.672C122.322 273.768 122.338 273.869 122.338 273.976C122.338 274.147 122.295 274.285 122.21 274.392C122.125 274.499 122.002 274.552 121.842 274.552H117.378ZM117.378 279V277.912H122.77C122.802 277.955 122.834 278.024 122.866 278.12C122.898 278.205 122.914 278.307 122.914 278.424C122.914 278.595 122.871 278.733 122.786 278.84C122.701 278.947 122.578 279 122.418 279H117.378ZM117.378 270.376V269.272H122.69C122.722 269.315 122.754 269.384 122.786 269.48C122.818 269.576 122.834 269.677 122.834 269.784C122.834 269.955 122.791 270.099 122.706 270.216C122.621 270.323 122.498 270.376 122.338 270.376H117.378Z" fill="black"/>
<defs>
<linearGradient id="paint0_linear_0_1" x1="112.362" y1="332.771" x2="130.32" y2="326.324" gradientUnits="userSpaceOnUse">
<stop stop-color="#57BB8A"/>
<stop offset="1" stop-color="#87CEAC"/>
</linearGradient>
<linearGradient id="paint1_linear_0_1" x1="135.708" y1="346.264" x2="121.945" y2="336.081" gradientUnits="userSpaceOnUse">
<stop stop-color="#0D904F"/>
<stop offset="0.955" stop-color="#097138"/>
</linearGradient>
</defs>
</svg>
