<svg width="347" height="460" viewBox="0 0 347 460" fill="none" xmlns="http://www.w3.org/2000/svg">
<mask id="path-1-inside-1_167_1643" fill="white">
<path d="M53 252H101V300H53V252Z"/>
</mask>
<path d="M53 252H101V300H53V252Z" fill="white"/>
<path d="M101 252H102V251H101V252ZM101 300V301H102V300H101ZM53 252V253H101V252V251H53V252ZM101 252H100V300H101H102V252H101ZM101 300V299H53V300V301H101V300Z" fill="#FFBC69" mask="url(#path-1-inside-1_167_1643)"/>
<mask id="path-3-inside-2_167_1643" fill="white">
<path d="M5 252H53V300H5V252Z"/>
</mask>
<path d="M5 252H53V300H5V252Z" fill="white"/>
<path d="M5 252V251H4V252H5ZM53 252H54V251H53V252ZM53 300V301H54V300H53ZM5 300H4V301H5V300ZM5 252V253H53V252V251H5V252ZM53 252H52V300H53H54V252H53ZM53 300V299H5V300V301H53V300ZM5 300H6V252H5H4V300H5Z" fill="#FFBC69" mask="url(#path-3-inside-2_167_1643)"/>
<mask id="path-5-inside-3_167_1643" fill="white">
<path d="M101 252H149V300H101V252Z"/>
</mask>
<path d="M101 252H149V300H101V252Z" fill="white"/>
<path d="M149 252H150V251H149V252ZM149 300V301H150V300H149ZM101 252V253H149V252V251H101V252ZM149 252H148V300H149H150V252H149ZM149 300V299H101V300V301H149V300Z" fill="#FFBC69" mask="url(#path-5-inside-3_167_1643)"/>
<mask id="path-7-inside-4_167_1643" fill="white">
<path d="M149 252H197V300H149V252Z"/>
</mask>
<path d="M149 252H197V300H149V252Z" fill="white"/>
<path d="M149 252V253H197V252V251H149V252ZM197 300V299H149V300V301H197V300Z" fill="#FFBC69" mask="url(#path-7-inside-4_167_1643)"/>
<path d="M122.674 275.144H123.97V280.872C123.927 280.883 123.847 280.909 123.73 280.952C123.613 280.984 123.495 281 123.378 281C123.165 281 122.994 280.936 122.866 280.808C122.738 280.669 122.674 280.499 122.674 280.296V275.144ZM123.97 277.032L122.674 277.016V271.976C122.674 271.763 122.738 271.592 122.866 271.464C122.994 271.336 123.165 271.272 123.378 271.272C123.495 271.272 123.613 271.288 123.73 271.32C123.847 271.352 123.927 271.379 123.97 271.4V277.032ZM123.378 276.552V275.464H128.194C128.226 275.507 128.258 275.576 128.29 275.672C128.322 275.768 128.338 275.869 128.338 275.976C128.338 276.147 128.295 276.285 128.21 276.392C128.125 276.499 128.002 276.552 127.842 276.552H123.378ZM123.378 281V279.912H128.77C128.802 279.955 128.834 280.024 128.866 280.12C128.898 280.205 128.914 280.307 128.914 280.424C128.914 280.595 128.871 280.733 128.786 280.84C128.701 280.947 128.578 281 128.418 281H123.378ZM123.378 272.376V271.272H128.69C128.722 271.315 128.754 271.384 128.786 271.48C128.818 271.576 128.834 271.677 128.834 271.784C128.834 271.955 128.791 272.099 128.706 272.216C128.621 272.323 128.498 272.376 128.338 272.376H123.378Z" fill="black"/>
<path d="M32.8249 272.344C32.8249 272.483 32.7769 272.611 32.6809 272.728C32.5955 272.835 32.4942 272.915 32.3769 272.968C32.1102 272.776 31.7849 272.595 31.4009 272.424C31.0275 272.253 30.5422 272.168 29.9449 272.168C29.2942 272.168 28.7075 272.317 28.1849 272.616C27.6729 272.915 27.2622 273.363 26.9529 273.96C26.6542 274.547 26.5049 275.277 26.5049 276.152C26.5049 277.464 26.8249 278.451 27.4649 279.112C28.1155 279.773 28.9582 280.104 29.9929 280.104C30.5475 280.104 31.0329 280.024 31.4489 279.864C31.8649 279.704 32.2062 279.523 32.4729 279.32C32.5795 279.363 32.6809 279.443 32.7769 279.56C32.8729 279.667 32.9209 279.795 32.9209 279.944C32.9209 280.051 32.8889 280.157 32.8249 280.264C32.7715 280.36 32.6755 280.456 32.5369 280.552C32.2915 280.723 31.9555 280.872 31.5289 281C31.1022 281.139 30.5582 281.208 29.8969 281.208C29.0115 281.208 28.2062 281.021 27.4809 280.648C26.7662 280.264 26.2009 279.699 25.7849 278.952C25.3689 278.205 25.1609 277.272 25.1609 276.152C25.1609 275.032 25.3742 274.093 25.8009 273.336C26.2382 272.579 26.8089 272.013 27.5129 271.64C28.2275 271.256 29.0062 271.064 29.8489 271.064C30.4355 271.064 30.9529 271.128 31.4009 271.256C31.8489 271.384 32.1955 271.549 32.4409 271.752C32.6969 271.944 32.8249 272.141 32.8249 272.344Z" fill="black"/>
<mask id="path-11-inside-5_167_1643" fill="white">
<path d="M197 252H245V300H197V252Z"/>
</mask>
<path d="M197 252H245V300H197V252Z" fill="white"/>
<path d="M197 252V251H196V252H197ZM245 252H246V251H245V252ZM245 300V301H246V300H245ZM197 300H196V301H197V300ZM197 252V253H245V252V251H197V252ZM245 252H244V300H245H246V252H245ZM245 300V299H197V300V301H245V300ZM197 300H198V252H197H196V300H197Z" fill="#FFBC69" mask="url(#path-11-inside-5_167_1643)"/>
<mask id="path-13-inside-6_167_1643" fill="white">
<path d="M245 252H293V300H245V252Z"/>
</mask>
<path d="M245 252H293V300H245V252Z" fill="white"/>
<path d="M293 252H294V251H293V252ZM293 300V301H294V300H293ZM245 252V253H293V252V251H245V252ZM293 252H292V300H293H294V252H293ZM293 300V299H245V300V301H293V300Z" fill="#FFBC69" mask="url(#path-13-inside-6_167_1643)"/>
<mask id="path-15-inside-7_167_1643" fill="white">
<path d="M100 300H149V349H100V300Z"/>
</mask>
<path d="M100 300H149V349H100V300Z" fill="white"/>
<path d="M149 349V350H150V349H149ZM100 349H99V350H100V349ZM149 300H148V349H149H150V300H149ZM149 349V348H100V349V350H149V349ZM100 349H101V300H100H99V349H100Z" fill="#C0CA33" mask="url(#path-15-inside-7_167_1643)"/>
<mask id="path-17-inside-8_167_1643" fill="white">
<path d="M100 349H149V398H100V349Z"/>
</mask>
<path d="M100 349H149V398H100V349Z" fill="white"/>
<path d="M149 398V399H150V398H149ZM100 398H99V399H100V398ZM149 349H148V398H149H150V349H149ZM149 398V397H100V398V399H149V398ZM100 398H101V349H100H99V398H100Z" fill="#C0CA33" mask="url(#path-17-inside-8_167_1643)"/>
<path d="M314.723 260.083L314.708 264.515L321.839 262.667L317.924 260L314.723 260.083ZM343.333 283.309C343.333 281.792 344.348 280.548 345.667 280.325V264.78C340.333 263.497 300.333 274.368 300.333 274.368V279.083C302.419 279.475 304 281.299 304 283.499C304 285.699 302.419 287.525 300.333 287.917V298.205L345.667 289.563V286.295C344.348 286.071 343.333 284.825 343.333 283.309Z" fill="#FFAC33"/>
<path d="M319.78 254.99L314.656 260.114C315.639 260.343 316.333 260.902 316.333 261.556C316.333 262.416 315.139 263.112 313.667 263.112C313.035 263.112 312.463 262.979 312.007 262.766L300.333 274.438C317.889 270.556 329.723 267.39 345.8 264.803C339.317 256.16 324.103 254.99 319.78 254.99Z" fill="#FFD983"/>
<path d="M325.667 258.889C325.667 259.749 324.472 260.445 323 260.445C321.528 260.445 320.333 259.749 320.333 258.889C320.333 258.029 321.528 257.333 323 257.333C324.472 257.333 325.667 258.029 325.667 258.889ZM319.096 267.416C319.096 268.72 317.284 269.777 315.048 269.777C312.812 269.777 311 268.72 311 267.416C311 266.112 312.812 265.055 315.048 265.055C317.283 265.056 319.096 266.113 319.096 267.416ZM337.667 263.136C337.667 264.595 335.639 265.777 333.139 265.777C330.639 265.777 328.611 264.595 328.611 263.136C328.611 261.677 330.639 260.495 333.139 260.495C335.639 260.495 337.667 261.677 337.667 263.136Z" fill="#FFAC33"/>
<path d="M343.832 272.829C343.832 274.605 342.527 276.044 340.915 276.044C339.303 276.044 337.997 274.605 337.997 272.829C337.997 271.053 339.303 269.615 340.915 269.615C342.527 269.615 343.832 271.053 343.832 272.829ZM314.165 279.312C314.165 280.985 312.935 282.341 311.416 282.341C309.897 282.341 308.667 280.984 308.667 279.312C308.667 277.637 309.897 276.281 311.416 276.281C312.935 276.281 314.165 277.639 314.165 279.312ZM337.04 285.952C336.369 286.755 335.233 286.912 334.503 286.301C333.773 285.692 333.727 284.545 334.4 283.743C335.073 282.936 336.208 282.78 336.937 283.389C337.668 284 337.713 285.145 337.04 285.952ZM324.128 276.115C323.225 277.196 321.695 277.408 320.712 276.585C319.731 275.765 319.668 274.221 320.573 273.141C321.48 272.056 323.008 271.847 323.989 272.667C324.972 273.488 325.035 275.031 324.128 276.115ZM325.292 289.468C323.692 291.607 320.82 292.163 318.881 290.712C316.941 289.261 316.664 286.349 318.264 284.212C319.864 282.072 322.736 281.516 324.675 282.965C326.615 284.416 326.892 287.328 325.292 289.468Z" fill="#F4900C"/>
<mask id="path-23-inside-9_167_1643" fill="white">
<path d="M5 204H53V252H5V204Z"/>
</mask>
<path d="M5 204H53V252H5V204Z" fill="white"/>
<path d="M53 204H52V252H53H54V204H53ZM5 252H6V204H5H4V252H5Z" fill="#C0CA33" mask="url(#path-23-inside-9_167_1643)"/>
<mask id="path-25-inside-10_167_1643" fill="white">
<path d="M5 300H53V348H5V300Z"/>
</mask>
<path d="M5 300H53V348H5V300Z" fill="white"/>
<path d="M53 348V349H54V348H53ZM5 348H4V349H5V348ZM53 300H52V348H53H54V300H53ZM53 348V347H5V348V349H53V348ZM5 348H6V300H5H4V348H5Z" fill="#C0CA33" mask="url(#path-25-inside-10_167_1643)"/>
<mask id="path-27-inside-11_167_1643" fill="white">
<path d="M5 156H53V204H5V156Z"/>
</mask>
<path d="M5 156H53V204H5V156Z" fill="white"/>
<path d="M53 204V205H54V204H53ZM5 204H4V205H5V204ZM53 156H52V204H53H54V156H53ZM53 204V203H5V204V205H53V204ZM5 204H6V156H5H4V204H5Z" fill="#C0CA33" mask="url(#path-27-inside-11_167_1643)"/>
<mask id="path-29-inside-12_167_1643" fill="white">
<path d="M5 108H53V156H5V108Z"/>
</mask>
<path d="M5 108H53V156H5V108Z" fill="white"/>
<path d="M53 156V157H54V156H53ZM5 156H4V157H5V156ZM53 108H52V156H53H54V108H53ZM53 156V155H5V156V157H53V156ZM5 156H6V108H5H4V156H5Z" fill="#C0CA33" mask="url(#path-29-inside-12_167_1643)"/>
<mask id="path-31-inside-13_167_1643" fill="white">
<path d="M5 60H53V108H5V60Z"/>
</mask>
<path d="M5 60H53V108H5V60Z" fill="white"/>
<path d="M5 60V59H4V60H5ZM53 60H54V59H53V60ZM53 108V109H54V108H53ZM5 108H4V109H5V108ZM5 60V61H53V60V59H5V60ZM53 60H52V108H53H54V60H53ZM53 108V107H5V108V109H53V108ZM5 108H6V60H5H4V108H5Z" fill="#C0CA33" mask="url(#path-31-inside-13_167_1643)"/>
<path d="M23.7001 37.1133L17.6514 41.1633C17.6514 41.1633 19.0726 41.8945 19.7251 43.0983C20.5126 44.5495 20.0289 45.5433 20.3701 45.6445C20.6439 45.727 21.4089 45.487 21.6264 45.067C21.8964 44.542 21.8814 44.182 21.8814 44.182C21.8814 44.182 22.2789 44.437 22.8826 45.457C23.2801 46.132 23.4939 46.8333 23.9026 46.8333C24.4464 46.8333 24.5476 46.1358 24.5814 45.7308C24.6151 45.3258 24.6451 44.572 24.6451 44.572C24.6451 44.572 25.4101 45.9558 25.7139 46.2595C26.0176 46.5633 26.5351 46.6983 26.7564 46.2558C26.9776 45.8133 26.8876 45.2245 27.3189 44.1295C27.9376 42.562 29.8801 40.6683 29.8801 40.6683L23.7001 37.1133Z" fill="#BB9176"/>
<path d="M10.2749 36.2326C10.2749 36.2326 11.5086 39.0639 13.7736 40.1739C16.8261 41.6701 19.3799 41.1601 19.3799 41.1601C19.3799 41.1601 21.3186 42.7239 24.5099 42.7239C27.7049 42.7239 30.6261 40.1064 30.6261 40.1064C30.6261 40.1064 32.6699 40.9014 35.6549 39.2889C38.2386 37.8939 38.4411 35.8239 38.4411 35.8239C38.4411 35.8239 40.9574 34.8039 41.8049 32.1864C42.6561 29.5689 42.6674 26.6776 40.9199 23.9626C39.0861 21.1089 33.4424 17.5051 32.5274 16.7926C31.6086 16.0801 28.5186 14.1076 27.8361 12.5439C27.1536 10.9801 26.6361 7.60886 26.5799 5.90636C26.4899 3.15761 26.7149 1.80386 25.9649 1.39511C25.2186 0.986357 23.7899 1.80386 23.0436 2.14136C22.2974 2.47886 20.5611 3.34511 20.4449 3.70886C20.3286 4.07261 20.6999 5.98136 20.4599 8.32511C20.2236 10.6689 19.6011 12.9414 18.0486 14.4076C14.4449 17.8051 10.2336 19.4701 7.9536 22.6989C5.6736 25.9276 4.9611 30.1764 6.69735 32.9964C8.43735 35.8239 10.2749 36.2326 10.2749 36.2326Z" fill="url(#paint0_radial_167_1643)"/>
<path d="M10.2749 36.2322C10.2749 36.2322 11.5086 39.0634 13.7736 40.1734C16.8261 41.6697 19.3799 41.1597 19.3799 41.1597C19.3799 41.1597 21.3186 42.7234 24.5099 42.7234C27.7049 42.7234 30.6261 40.1059 30.6261 40.1059C30.6261 40.1059 32.6699 40.9009 35.6549 39.2884C38.2386 37.8934 38.4411 35.8234 38.4411 35.8234C38.4411 35.8234 40.9574 34.8034 41.8049 32.1859C42.6561 29.5684 42.6674 26.6772 40.9199 23.9622C39.0861 21.1084 35.6511 18.8772 32.5274 16.7922C31.5599 16.1472 28.5186 14.1072 27.8361 12.5434C27.1536 10.9797 26.6099 8.00594 26.5349 6.30719C26.4411 4.13594 20.6999 5.98469 20.4599 8.32844C20.2236 10.6722 19.6011 12.9447 18.0486 14.4109C14.4449 17.8084 10.2336 19.4734 7.9536 22.7022C5.6736 25.9309 4.9611 30.1797 6.69735 32.9997C8.43735 35.8234 10.2749 36.2322 10.2749 36.2322Z" fill="url(#paint1_radial_167_1643)"/>
<path d="M15.1311 24.0449C15.1311 24.0449 10.7098 25.5112 9.09358 29.3699C7.85983 32.3137 8.48608 35.1487 8.48608 35.1487C8.48608 35.1487 9.02608 35.7487 9.44233 35.9287C9.86233 36.1087 10.2711 36.2324 10.2711 36.2324C10.2711 36.2324 10.5486 36.8587 10.7886 37.2149C11.0286 37.5712 11.6286 38.3512 11.6286 38.3512C11.6286 38.3512 10.8111 36.1724 11.6023 32.2799C12.7048 26.8687 15.1311 24.0449 15.1311 24.0449Z" fill="url(#paint2_radial_167_1643)"/>
<path d="M32.854 21.168C32.854 21.168 36.5365 25.4505 37.6053 28.3642C39.454 33.408 38.4453 35.8192 38.4453 35.8192C38.4453 35.8192 39.6753 35.4742 40.5753 34.398C41.4753 33.3217 41.8128 31.7917 41.209 28.9117C40.6503 26.2567 37.8865 24.2055 37.8865 24.2055L38.509 26.6392C38.509 26.6392 37.8453 25.383 36.409 23.853C34.4815 21.8017 32.854 21.168 32.854 21.168Z" fill="url(#paint3_radial_167_1643)"/>
<path d="M16.6162 22.0845C16.6162 22.0845 19.5262 17.1458 20.4937 14.7383C21.5137 12.1995 22.1587 11.1758 22.0462 7.30203C21.9862 5.37453 21.4874 2.92203 21.4874 2.92203L22.5862 2.36328C22.5862 2.36328 23.7899 5.39328 24.2474 8.99703C24.7049 12.6008 24.8699 14.9745 23.0924 20.3033C21.6149 24.732 19.8974 27.192 18.7574 30.0683C17.6174 32.9445 16.2037 40.5345 24.0524 41.5583C31.0349 42.4695 31.6949 36.2033 29.6624 31.572C28.1137 28.0358 26.0587 23.6783 26.0137 20.9858C25.9687 18.2933 26.1524 17.1983 26.1524 17.1983C26.1524 17.1983 28.4324 21.0758 29.4824 23.1308C30.5324 25.1858 32.9174 29.3145 32.8687 33.237C32.8237 37.0358 31.6537 42.6308 24.0787 42.8745C16.9612 43.107 13.4212 35.4008 15.9749 29.202C18.6937 22.602 20.1637 21.057 20.9699 19.032C22.0124 16.4145 21.9974 15.0195 21.9974 15.0195C21.9974 15.0195 20.4037 17.427 19.2187 19.0245C18.4312 20.082 16.6162 22.0845 16.6162 22.0845Z" fill="url(#paint4_radial_167_1643)"/>
<path d="M25.2638 13.3418C25.2638 13.3418 25.8188 15.1118 25.9276 17.9918C26.0401 20.8718 26.4563 22.6905 27.0938 25.5255C27.5963 27.7568 30.4651 31.4918 30.6001 36.093C30.6901 39.1643 29.2163 41.763 24.6563 41.5793C17.2951 41.283 17.7676 34.683 17.9851 32.583C18.2213 30.3555 22.2188 23.4743 23.3251 19.7618C24.0488 17.3393 25.2638 13.3418 25.2638 13.3418Z" fill="url(#paint5_radial_167_1643)"/>
<path d="M29.6666 31.5749C32.4153 37.8562 28.5191 41.7187 28.5191 41.7187C32.1078 39.9112 32.8391 36.1274 32.8728 33.2399C32.9178 29.3174 30.5328 25.1849 29.4866 23.1337C28.4366 21.0787 26.1566 17.2012 26.1566 17.2012C26.1566 17.2012 25.9728 18.2962 26.0178 20.9887C26.0628 23.6812 28.1066 28.0462 29.6666 31.5749Z" fill="url(#paint6_radial_167_1643)"/>
<path d="M27.0091 180.232H28.8491C29.6384 180.232 30.2571 180.061 30.7051 179.72C31.1531 179.379 31.3771 178.872 31.3771 178.2C31.3771 177.539 31.1424 177.037 30.6731 176.696C30.2037 176.355 29.5317 176.184 28.6571 176.184C28.3691 176.184 28.0757 176.2 27.7771 176.232C27.4891 176.253 27.2331 176.285 27.0091 176.328V180.232ZM28.8491 181.32H25.7131V175.976C25.7131 175.805 25.7557 175.677 25.8411 175.592C25.9371 175.496 26.0704 175.421 26.2411 175.368C26.5504 175.272 26.9291 175.203 27.3771 175.16C27.8357 175.117 28.2784 175.096 28.7051 175.096C30.0384 175.096 31.0357 175.368 31.6971 175.912C32.3584 176.456 32.6891 177.219 32.6891 178.2C32.6891 178.829 32.5451 179.379 32.2571 179.848C31.9691 180.317 31.5424 180.68 30.9771 180.936C30.4117 181.192 29.7024 181.32 28.8491 181.32ZM28.8811 180.904L29.8411 180.424C30.1397 180.797 30.4491 181.187 30.7691 181.592C31.0891 181.997 31.3984 182.392 31.6971 182.776C31.9957 183.16 32.2624 183.507 32.4971 183.816C32.7317 184.115 32.9131 184.349 33.0411 184.52C32.9984 184.701 32.9024 184.845 32.7531 184.952C32.6144 185.059 32.4704 185.112 32.3211 185.112C32.1397 185.112 31.9904 185.069 31.8731 184.984C31.7557 184.888 31.6331 184.755 31.5051 184.584L28.8811 180.904ZM25.7131 180.968H27.0251V184.968C26.9611 184.989 26.8757 185.011 26.7691 185.032C26.6624 185.064 26.5451 185.08 26.4171 185.08C26.1824 185.08 26.0064 185.032 25.8891 184.936C25.7717 184.84 25.7131 184.691 25.7131 184.488V180.968Z" fill="black"/>
<path d="M124.787 413.693C136.667 413.667 144.163 432.991 141.204 445.238C138.587 456.083 131.068 458.33 125.049 458.33C119.03 458.33 111.722 455.412 108.894 445.658C105.624 434.363 113.702 413.72 124.787 413.693Z" fill="#F2A05B"/>
<path d="M115.724 422.885C114.299 425.161 112.863 428.026 112.555 430.415C111.993 434.813 115.229 435.308 116.358 433.126C117.487 430.943 118.642 428.735 120.475 425.806C123.01 421.76 127.162 419.048 125.122 417.29C123.082 415.531 118.717 418.1 115.724 422.885Z" fill="#FECC88"/>
<path d="M135.273 429.113C135.691 429.113 136.031 428.767 136.031 428.341C136.031 427.914 135.691 427.568 135.273 427.568C134.855 427.568 134.516 427.914 134.516 428.341C134.516 428.767 134.855 429.113 135.273 429.113Z" fill="#D47858"/>
<path d="M136.129 447.581C136.302 447.162 136.103 446.682 135.686 446.511C135.268 446.339 134.79 446.54 134.617 446.959C134.445 447.379 134.643 447.858 135.061 448.03C135.478 448.201 135.957 448.001 136.129 447.581Z" fill="#D47858"/>
<path d="M114.05 450.869C114.21 450.478 114.024 450.031 113.633 449.87C113.243 449.709 112.795 449.896 112.635 450.287C112.474 450.677 112.661 451.124 113.051 451.285C113.442 451.446 113.889 451.259 114.05 450.869Z" fill="#D47858"/>
<path d="M138.087 436.36C138.651 436.068 138.9 435.428 138.643 434.931C138.386 434.435 137.719 434.27 137.155 434.562C136.59 434.855 136.341 435.494 136.599 435.991C136.856 436.487 137.522 436.653 138.087 436.36Z" fill="#D47858"/>
<path d="M127.159 446.426C127.723 446.134 127.973 445.494 127.715 444.998C127.458 444.501 126.792 444.336 126.227 444.629C125.663 444.921 125.414 445.561 125.671 446.057C125.928 446.554 126.594 446.719 127.159 446.426Z" fill="#D47858"/>
<path d="M126.09 451.755C126.507 451.232 126.491 450.525 126.054 450.177C125.617 449.828 124.924 449.969 124.507 450.492C124.09 451.015 124.106 451.722 124.544 452.071C124.981 452.419 125.673 452.278 126.09 451.755Z" fill="#D47858"/>
<path d="M121.615 452.993C122.107 452.439 122.072 451.603 121.537 451.127C121.001 450.651 120.168 450.714 119.675 451.268C119.183 451.822 119.217 452.657 119.753 453.134C120.288 453.61 121.122 453.547 121.615 452.993Z" fill="#D47858"/>
<defs>
<radialGradient id="paint0_radial_167_1643" cx="0" cy="0" r="1" gradientUnits="userSpaceOnUse" gradientTransform="translate(24.2294 32.7654) scale(43.1317 43.1317)">
<stop offset="0.181" stop-color="#EDDFDF"/>
<stop offset="0.335" stop-color="#E7CED1"/>
<stop offset="0.519" stop-color="#E3C1C6"/>
<stop offset="0.69" stop-color="#E1BDC2"/>
</radialGradient>
<radialGradient id="paint1_radial_167_1643" cx="0" cy="0" r="1" gradientTransform="matrix(-0.0971953 -9.76837 19.2505 -0.19146 24.2109 24.8877)" gradientUnits="userSpaceOnUse">
<stop stop-color="#F8F6F7" stop-opacity="0.7"/>
<stop offset="0.824" stop-color="#F8F6F7" stop-opacity="0"/>
</radialGradient>
<radialGradient id="paint2_radial_167_1643" cx="0" cy="0" r="1" gradientUnits="userSpaceOnUse" gradientTransform="translate(9.72433 36.9738) scale(13.4314)">
<stop offset="0.181" stop-color="#C8A9B3"/>
<stop offset="0.488" stop-color="#D2B2BA"/>
<stop offset="0.69" stop-color="#DBBAC0"/>
</radialGradient>
<radialGradient id="paint3_radial_167_1643" cx="0" cy="0" r="1" gradientUnits="userSpaceOnUse" gradientTransform="translate(40.4016 34.4808) scale(14.4157)">
<stop offset="0.126" stop-color="#B494A7"/>
<stop offset="0.283" stop-color="#BB9BAC"/>
<stop offset="0.6" stop-color="#C4A5B2"/>
</radialGradient>
<radialGradient id="paint4_radial_167_1643" cx="0" cy="0" r="1" gradientUnits="userSpaceOnUse" gradientTransform="translate(24.4023 2.54741) scale(40.6429)">
<stop offset="0.094" stop-color="#A385A0"/>
<stop offset="0.403" stop-color="#C0A0AD"/>
<stop offset="0.405" stop-color="#C0A0AD"/>
<stop offset="0.559" stop-color="#D5B7C0"/>
<stop offset="0.671" stop-color="#E0C3CA"/>
</radialGradient>
<radialGradient id="paint5_radial_167_1643" cx="0" cy="0" r="1" gradientUnits="userSpaceOnUse" gradientTransform="translate(24.3522 32.3693) scale(19.5221)">
<stop stop-color="#F8F6F7"/>
<stop offset="0.782" stop-color="#F8F6F7" stop-opacity="0"/>
</radialGradient>
<radialGradient id="paint6_radial_167_1643" cx="0" cy="0" r="1" gradientUnits="userSpaceOnUse" gradientTransform="translate(28.845 17.3939) scale(23.6505 23.6505)">
<stop offset="0.238" stop-color="#E0C3CA"/>
<stop offset="0.357" stop-color="#D8BBC5"/>
<stop offset="0.542" stop-color="#C3A6B6"/>
<stop offset="0.753" stop-color="#A385A0"/>
<stop offset="0.819" stop-color="#A688A2" stop-opacity="0.705"/>
<stop offset="0.871" stop-color="#B092A9" stop-opacity="0.472"/>
<stop offset="0.918" stop-color="#C0A3B4" stop-opacity="0.26"/>
<stop offset="0.963" stop-color="#D7BAC4" stop-opacity="0.061"/>
<stop offset="0.976" stop-color="#E0C3CA" stop-opacity="0"/>
</radialGradient>
</defs>
</svg>
