<svg width="24" height="24" viewBox="0 0 24 24" fill="none" xmlns="http://www.w3.org/2000/svg">
<path fill-rule="evenodd" clip-rule="evenodd" d="M16.4278 4.28007C19.8127 3.94158 22.75 6.60001 22.7501 10.0017V16.0008C22.7501 20.3452 17.0726 21.9922 14.7481 18.3221C13.6643 16.6111 11.1882 16.5538 10.0264 18.2127L9.74127 18.6189C7.12411 22.3576 1.25006 20.5059 1.25006 15.9422V10.0017C1.25017 6.60005 4.18749 3.94165 7.57233 4.28007L11.4776 4.67069C11.825 4.70543 12.1752 4.70543 12.5225 4.67069L16.4278 4.28007ZM8.00006 8.72636C7.58596 8.72641 7.25017 9.06227 7.25006 9.47636V10.7273H6.00006C5.58587 10.7274 5.25006 11.0631 5.25006 11.4773C5.25027 11.8914 5.586 12.2273 6.00006 12.2273H7.25006V13.4764C7.25006 13.8905 7.58589 14.2263 8.00006 14.2264C8.41427 14.2264 8.75006 13.8906 8.75006 13.4764V12.2273H10.0001C10.4141 12.2273 10.7499 11.8914 10.7501 11.4773C10.7501 11.0631 10.4143 10.7273 10.0001 10.7273H8.75006V9.47636C8.74996 9.06223 8.41421 8.72636 8.00006 8.72636ZM16.0001 11.9773C15.4478 11.9774 15.0001 12.4251 15.0001 12.9773C15.0001 13.5296 15.4478 13.9773 16.0001 13.9773C16.5523 13.9773 17.0001 13.5296 17.0001 12.9773C17.0001 12.425 16.5523 11.9773 16.0001 11.9773ZM18.0001 8.97733C17.4478 8.97739 17.0001 9.42509 17.0001 9.97733C17.0001 10.5296 17.4478 10.9773 18.0001 10.9773C18.5523 10.9773 19.0001 10.5296 19.0001 9.97733C19.0001 9.42505 18.5523 8.97733 18.0001 8.97733Z" fill="#FF8F0F"/>
</svg>
