<svg width="20" height="20" viewBox="0 0 20 20" fill="none" xmlns="http://www.w3.org/2000/svg">
<path fill-rule="evenodd" clip-rule="evenodd" d="M7.25 5.41663V10.4166C7.25 10.7778 7.32113 11.1354 7.45933 11.469C7.59753 11.8027 7.8001 12.1058 8.05546 12.3612C8.31082 12.6165 8.61398 12.8191 8.94762 12.9573C9.28127 13.0955 9.63886 13.1666 10 13.1666C10.3611 13.1666 10.7187 13.0955 11.0524 12.9573C11.386 12.8191 11.6892 12.6165 11.9445 12.3612C12.1999 12.1058 12.4025 11.8027 12.5407 11.469C12.6789 11.1354 12.75 10.7778 12.75 10.4166V5.41663C12.75 4.68728 12.4603 3.98781 11.9445 3.47208C11.4288 2.95636 10.7293 2.66663 10 2.66663C9.27065 2.66663 8.57118 2.95636 8.05546 3.47208C7.53973 3.98781 7.25 4.68728 7.25 5.41663ZM10.5 16.6466V19.1666H9.5V16.6466C7.93398 16.5209 6.47273 15.8101 5.4072 14.6556C4.34166 13.5011 3.74999 11.9877 3.75 10.4166V9.16663H4.75V10.4166C4.75 11.809 5.30312 13.1444 6.28769 14.1289C7.27226 15.1135 8.60761 15.6666 10 15.6666C11.3924 15.6666 12.7277 15.1135 13.7123 14.1289C14.6969 13.1444 15.25 11.809 15.25 10.4166V9.16663H16.25V10.4166C16.25 11.9877 15.6583 13.5011 14.5928 14.6556C13.5273 15.8101 12.066 16.5209 10.5 16.6466ZM6.25 5.41663C6.25 4.42206 6.64509 3.46824 7.34835 2.76498C8.05161 2.06171 9.00544 1.66663 10 1.66663C10.9946 1.66663 11.9484 2.06171 12.6516 2.76498C13.3549 3.46824 13.75 4.42206 13.75 5.41663V10.4166C13.75 11.4112 13.3549 12.365 12.6516 13.0683C11.9484 13.7715 10.9946 14.1666 10 14.1666C9.00544 14.1666 8.05161 13.7715 7.34835 13.0683C6.64509 12.365 6.25 11.4112 6.25 10.4166V5.41663Z" fill="#505050"/>
</svg>
