<svg width="30" height="30" viewBox="0 0 30 30" fill="none" xmlns="http://www.w3.org/2000/svg">
<g clip-path="url(#clip0_126_779)">
<path d="M5.23742 14.471L5.32029 14.424C8.01929 13.1152 13.8738 10.5374 20.0577 9.47842L20.0597 9.47772C20.2096 9.45118 20.3641 9.4617 20.5093 9.50742C20.6542 9.55313 20.7864 9.63267 20.8939 9.74013C21.0015 9.84776 21.0816 9.98025 21.1273 10.1254C21.173 10.2705 21.1828 10.4245 21.1563 10.5743V10.5771C20.0973 16.7609 17.5191 22.6151 16.21 25.3137C15.9811 25.7859 15.3522 25.7733 15.1417 25.2992C14.2731 23.3394 13.5303 21.2692 13.1986 20.3094C13.1001 20.0204 13.1173 19.7041 13.2455 19.4269L13.2462 19.4262L14.4781 16.7428L14.9774 15.6566L13.8912 16.1559L11.2085 17.3885L11.2078 17.3892C10.9305 17.5174 10.6144 17.5334 10.3253 17.4347C9.36547 17.103 7.29492 16.3618 5.33548 15.493C4.8904 15.2956 4.8513 14.7292 5.23742 14.471Z" stroke="#505050" stroke-width="0.885575"/>
</g>
<defs>
<clipPath id="clip0_126_779">
<rect width="21.2132" height="21.2132" fill="white" transform="translate(0 15) rotate(-45)"/>
</clipPath>
</defs>
</svg>
