<svg width="16" height="16" viewBox="0 0 16 16" fill="none" xmlns="http://www.w3.org/2000/svg">
<path d="M7.99998 2.66675C7.78899 2.8182 7.61803 3.01873 7.50188 3.25103C7.38573 3.48333 7.32788 3.74042 7.33332 4.00008C7.32788 4.25975 7.38573 4.51683 7.50188 4.74913C7.61803 4.98143 7.78899 5.18197 7.99998 5.33341M10.6667 2.66675C10.4557 2.8182 10.2847 3.01873 10.1686 3.25103C10.0524 3.48333 9.99455 3.74042 9.99998 4.00008C9.99455 4.25975 10.0524 4.51683 10.1686 4.74913C10.2847 4.98143 10.4557 5.18197 10.6667 5.33341M5.33332 2.66675C5.12232 2.8182 4.95137 3.01873 4.83522 3.25103C4.71907 3.48333 4.66121 3.74042 4.66665 4.00008C4.66121 4.25975 4.71907 4.51683 4.83522 4.74913C4.95137 4.98143 5.12232 5.18197 5.33332 5.33341M2.66667 7.33341H13.3333C13.5101 7.33341 13.6797 7.40365 13.8047 7.52868C13.9298 7.6537 14 7.82327 14 8.00008V8.33341C14 9.33341 12.322 12.0487 11.3333 12.6667V13.3334C11.3333 13.5102 11.2631 13.6798 11.1381 13.8048C11.013 13.9298 10.8435 14.0001 10.6667 14.0001H5.33333C5.15652 14.0001 4.98695 13.9298 4.86193 13.8048C4.7369 13.6798 4.66667 13.5102 4.66667 13.3334V12.6667C3.542 11.9641 2 9.33341 2 8.33341V8.00008C2 7.82327 2.07024 7.6537 2.19526 7.52868C2.32029 7.40365 2.48986 7.33341 2.66667 7.33341Z" stroke="#FF8F0F" stroke-width="1.33333" stroke-linecap="round" stroke-linejoin="round"/>
</svg>
