<svg width="24" height="24" viewBox="0 0 24 24" fill="none" xmlns="http://www.w3.org/2000/svg">
<path d="M10.8784 1.86378C11.3872 1.01834 12.6128 1.01834 13.1216 1.86378L15.6639 6.08822C15.8467 6.39194 16.1449 6.60856 16.4902 6.68854L21.2935 7.80099C22.2548 8.02363 22.6336 9.18933 21.9867 9.93448L18.7547 13.6578C18.5223 13.9255 18.4084 14.276 18.4391 14.6291L18.8653 19.5411C18.9507 20.5241 17.9591 21.2446 17.0505 20.8597L12.5107 18.9363C12.1843 18.7981 11.8157 18.7981 11.4893 18.9363L6.94951 20.8597C6.04095 21.2446 5.04934 20.5241 5.13465 19.5411L5.56095 14.6291C5.5916 14.276 5.47772 13.9255 5.24534 13.6578L2.01328 9.93448C1.36644 9.18934 1.7452 8.02363 2.70649 7.80099L7.50978 6.68854C7.85513 6.60856 8.15327 6.39194 8.33605 6.08822L10.8784 1.86378Z" stroke="#505050" stroke-width="1.63636"/>
</svg>
