<svg width="14" height="14" viewBox="0 0 14 14" fill="none" xmlns="http://www.w3.org/2000/svg">
<path d="M6.34571 1.08721C6.64251 0.594033 7.35749 0.594034 7.65429 1.08721L9.1373 3.55146C9.24393 3.72863 9.41784 3.85499 9.61929 3.90165L12.4212 4.55058C12.982 4.68045 13.2029 5.36045 12.8256 5.79511L10.9402 7.96704C10.8047 8.12319 10.7382 8.32764 10.7561 8.53365L11.0048 11.399C11.0546 11.9724 10.4761 12.3927 9.94612 12.1681L7.29789 11.0462C7.10749 10.9655 6.89251 10.9655 6.70211 11.0462L4.05388 12.1681C3.52389 12.3927 2.94545 11.9724 2.99521 11.399L3.24389 8.53365C3.26177 8.32764 3.19533 8.12319 3.05978 7.96704L1.17441 5.79511C0.797092 5.36045 1.01804 4.68045 1.57878 4.55058L4.38071 3.90165C4.58216 3.85499 4.75607 3.72863 4.8627 3.55146L6.34571 1.08721Z" fill="#FF8F0F"/>
</svg>
