<svg width="32" height="32" viewBox="0 0 32 32" fill="none" xmlns="http://www.w3.org/2000/svg">
<path d="M22.6666 4C22.9932 4.00004 23.3084 4.11994 23.5525 4.33695C23.7965 4.55397 23.9524 4.853 23.9906 5.17733L24 5.33333V8.22667C24.6032 8.01413 25.2486 7.94933 25.882 8.03771C26.5154 8.12608 27.1184 8.36506 27.6404 8.73459C28.1624 9.10412 28.5882 9.59343 28.882 10.1615C29.1759 10.7295 29.3293 11.3598 29.3293 11.9993C29.3293 12.6389 29.1759 13.2691 28.882 13.8372C28.5882 14.4052 28.1624 14.8945 27.6404 15.2641C27.1184 15.6336 26.5154 15.8726 25.882 15.961C25.2486 16.0493 24.6032 15.9845 24 15.772V16C23.9997 17.8906 23.3301 19.7201 22.1098 21.1642C20.8896 22.6083 19.1974 23.5737 17.3333 23.8893V26.6667H21.3333C21.6731 26.667 22 26.7972 22.2471 27.0305C22.4942 27.2638 22.643 27.5826 22.6629 27.9219C22.6828 28.2611 22.5724 28.5952 22.3543 28.8558C22.1362 29.1164 21.8268 29.2839 21.4893 29.324L21.3333 29.3333H10.6666C10.3268 29.333 9.99993 29.2028 9.75281 28.9695C9.5057 28.7362 9.35699 28.4174 9.33707 28.0781C9.31716 27.7389 9.42754 27.4048 9.64566 27.1442C9.86378 26.8836 10.1732 26.7161 10.5106 26.676L10.6666 26.6667H14.6666V23.8893C12.8533 23.5824 11.201 22.6602 9.98781 21.278C8.7746 19.8958 8.0745 18.1378 8.0053 16.3L7.99997 16V15.772C7.4152 15.979 6.79031 16.0472 6.17466 15.9711C5.55902 15.895 4.96951 15.6768 4.45271 15.3337C3.93591 14.9906 3.506 14.532 3.19694 13.9942C2.88789 13.4563 2.70816 12.8539 2.67197 12.2347L2.66797 12L2.67464 11.7653C2.71069 11.1461 2.89027 10.5438 3.19916 10.0059C3.50805 9.46799 3.93781 9.00931 4.45446 8.66608C4.97112 8.32285 5.56051 8.10448 6.17608 8.02822C6.79164 7.95195 7.41651 8.01989 8.0013 8.22667L7.99997 5.33333C7.99997 4.97971 8.14045 4.64057 8.39049 4.39052C8.64054 4.14048 8.97968 4 9.3333 4H22.6666ZM6.66664 10.6667C6.31301 10.6667 5.97388 10.8071 5.72383 11.0572C5.47378 11.3072 5.3333 11.6464 5.3333 12C5.3333 12.3536 5.47378 12.6928 5.72383 12.9428C5.97388 13.1929 6.31301 13.3333 6.66664 13.3333C7.02026 13.3333 7.3594 13.1929 7.60944 12.9428C7.85949 12.6928 7.99997 12.3536 7.99997 12C7.99997 11.6464 7.85949 11.3072 7.60944 11.0572C7.3594 10.8071 7.02026 10.6667 6.66664 10.6667ZM25.3333 10.6667C24.9797 10.6667 24.6405 10.8071 24.3905 11.0572C24.1404 11.3072 24 11.6464 24 12C24 12.3536 24.1404 12.6928 24.3905 12.9428C24.6405 13.1929 24.9797 13.3333 25.3333 13.3333C25.6869 13.3333 26.0261 13.1929 26.2761 12.9428C26.5262 12.6928 26.6666 12.3536 26.6666 12C26.6666 11.6464 26.5262 11.3072 26.2761 11.0572C26.0261 10.8071 25.6869 10.6667 25.3333 10.6667Z" fill="#FFB45E"/>
</svg>
