<svg width="20" height="20" viewBox="0 0 20 20" fill="none" xmlns="http://www.w3.org/2000/svg">
<path d="M1.66669 10C1.66669 10.8766 1.81707 11.718 2.09345 12.5M2.09345 12.5H9.16669M2.09345 12.5C3.12305 15.413 5.90114 17.5 9.16669 17.5C7.87987 17.5 6.82012 14.5833 6.68194 10.8334M10.8448 7.5H17.9179M17.9179 7.5C16.8884 4.58702 14.1103 2.5 10.8448 2.5C12.1789 2.5 13.2689 5.635 13.3409 9.58336M17.9179 7.5C18.1503 8.15723 18.2935 8.85653 18.3334 9.58336" stroke="#6C6C6C" stroke-width="1.25" stroke-linecap="round" stroke-linejoin="round"/>
<path d="M1.66669 4.41478C1.66669 3.49947 1.66669 3.04182 1.82284 2.6869C1.98844 2.31052 2.27386 2.008 2.62899 1.83249C2.96386 1.66699 3.39567 1.66699 4.25928 1.66699H5.00002C6.57137 1.66699 7.35705 1.66699 7.8452 2.18437C8.33335 2.70174 8.33335 3.53445 8.33335 5.19986V7.08242C8.33335 7.80888 8.33335 8.1721 8.1133 8.29693C7.89324 8.42174 7.60808 8.22026 7.03777 7.81729L6.95088 7.7559C6.53407 7.4614 6.32567 7.31414 6.08948 7.23835C5.85329 7.16256 5.60282 7.16256 5.10188 7.16256H4.25928C3.39567 7.16256 2.96386 7.16256 2.62899 6.99706C2.27386 6.82155 1.98844 6.51903 1.82284 6.14265C1.66669 5.78773 1.66669 5.33008 1.66669 4.41478Z" stroke="#6C6C6C" stroke-width="1.25"/>
<path d="M18.3334 14.4147C18.3334 13.4995 18.3334 13.0418 18.1772 12.6869C18.0116 12.3105 17.7262 12.008 17.371 11.8325C17.0362 11.667 16.6044 11.667 15.7408 11.667H15C13.4287 11.667 12.643 11.667 12.1549 12.1844C11.6667 12.7017 11.6667 13.5344 11.6667 15.1998V17.0824C11.6667 17.8089 11.6667 18.1721 11.8868 18.2969C12.1068 18.4217 12.3919 18.2202 12.9623 17.8173L13.0492 17.7559C13.4659 17.4614 13.6744 17.3142 13.9105 17.2383C14.1468 17.1626 14.3972 17.1626 14.8982 17.1626H15.7408C16.6044 17.1626 17.0362 17.1626 17.371 16.9971C17.7262 16.8216 18.0116 16.5191 18.1772 16.1427C18.3334 15.7877 18.3334 15.3301 18.3334 14.4147Z" stroke="#6C6C6C" stroke-width="1.25"/>
</svg>
